<svg xmlns="http://www.w3.org/2000/svg" fill="none" viewBox="0 0 88 22"><path fill="#000" d="M36.856 8.98v8.891H34.12v-8.89l-3.04-.38V6.39h8.796V8.6l-3.024.38h.004Zm3.891 4.315V6.394h2.736v6.9c0 1.294.605 2.192 1.948 2.192 1.342 0 1.917-.913 1.917-2.206V6.394h2.735v6.882c0 2.77-1.575 4.808-4.687 4.808s-4.652-1.924-4.652-4.793l.003.004Zm16.709-.662 2.587 5.242H57.11l-2.23-4.71h-.738v4.71h-2.72V6.398h3.9c2.377 0 3.572 1.244 3.572 3.416 0 1.278-.525 2.256-1.442 2.819h.004Zm-3.31-3.85v2.123h.951c.624 0 .982-.43.982-1.077 0-.646-.377-1.046-.982-1.046h-.95Zm9.602 1.742 1.427.563c1.476.613 2.343 1.61 2.343 3.318 0 2.32-1.624 3.682-3.9 3.682-3.244 0-3.834-2.138-3.735-3.815h2.587c-.034.73.243 1.445 1.145 1.445.624 0 1.08-.35 1.08-1.012s-.46-.962-1.194-1.244c-.575-.232-1.145-.449-1.77-.764-1.144-.598-1.753-1.724-1.753-3.116 0-2.009 1.442-3.401 3.652-3.401 2.67 0 3.637 1.544 3.523 3.583h-2.522c.015-.715-.343-1.21-.986-1.21s-.932.381-.932.864.263.81 1.031 1.111l.004-.004Zm10.238-4.344C77.686 6.18 80 8.753 80 12.104c0 3.352-2.294 5.988-5.93 5.988-3.638 0-5.966-2.572-5.966-5.938 0-3.367 2.393-5.973 5.882-5.973Zm.068 9.32c1.997 0 3.081-1.495 3.081-3.366 0-1.872-1.145-3.367-3.096-3.367-1.952 0-3.063 1.491-3.063 3.367 0 1.875 1.195 3.366 3.082 3.366h-.004ZM21.297 10.416l.206 2.777.078 1.038-1.004.256c-.62.157-1.473.376-2.703.376-1.23 0-2.082-.219-2.703-.376l-1.004-.256.078-1.038.206-2.777-3.242-1.133c.193 2.212.95 6.704 1.177 7.143.263.504 1.658 1.95 2.748 2.504 0 0 .395-.421.638-.793.304.363 1.888 1.64 2.102 1.64.214 0 1.798-1.277 2.103-1.64.242.372.637.793.637.793 1.09-.553 2.485-2 2.749-2.504.226-.439.983-4.931 1.176-7.143l-3.242 1.133Z"/><path fill="#000" d="m19.993 9.556 7.756-2.708c-.461-2.785-2.88-4.844-2.88-4.844v3.063l-1.436.372-.901-1.095-.77 1.529-3.888 1.013-3.888-1.013-.769-1.53-.901 1.096-1.436-.372V2S8.46 4.063 8 6.844l7.755 2.708-.275 3.728c.662.17 1.357.339 2.398.339 1.041 0 1.737-.17 2.399-.339l-.276-3.728-.008.004Z"/></svg>