<svg width="78" height="14" viewBox="0 0 78 14" fill="none" xmlns="http://www.w3.org/2000/svg">
<g clip-path="url(#clip0_52_67)">
<path d="M51.4555 2.39716C52.9092 2.40289 53.8204 2.62449 54.5979 3.22432C55.597 3.99225 56.2083 5.0028 56.3439 6.26741C56.4796 7.52437 56.235 8.71066 55.4575 9.72121C54.4737 10.9992 53.1423 11.5302 51.53 11.3488C50.21 11.1998 49.1651 10.5827 48.4086 9.49197C47.7877 8.59605 47.5623 7.60079 47.6884 6.52147C47.7744 5.78792 47.9578 5.08303 48.3398 4.44499C49.1517 3.09633 50.3494 2.40863 51.4536 2.39716H51.4555ZM53.7497 6.93028C53.66 6.1547 53.4785 5.40205 53.1499 4.69142C52.978 4.317 52.7774 3.95978 52.4871 3.65795C51.9197 3.07341 50.869 3.12689 50.466 3.96551C50.3972 4.10878 50.3284 4.25587 50.2902 4.41061C50.1087 5.11741 50.0724 5.83377 50.1298 6.56159C50.1947 7.36391 50.3418 8.14522 50.6551 8.88832C50.848 9.34679 51.0811 9.78233 51.4517 10.1281C52.0897 10.7184 53.0391 10.577 53.4575 9.81672C53.5664 9.61996 53.6485 9.39837 53.6963 9.17868C53.8854 8.31332 53.788 7.27031 53.7497 6.93028Z" fill="black"/>
<path d="M57.471 6.21965C57.301 6.21965 57.173 6.22347 57.045 6.21965C56.8521 6.2101 56.7508 6.11267 56.7355 5.92355C56.7298 5.8395 56.7298 5.75545 56.7355 5.67331C56.7489 5.47846 56.8521 5.36957 57.0488 5.34474C57.131 5.33519 57.2169 5.33901 57.301 5.33901C57.9581 5.32754 58.4739 4.95504 58.684 4.3361C58.6936 4.30745 58.7012 4.27689 58.7108 4.24823C58.8388 3.82033 58.9381 3.75347 59.3832 3.79549C59.6239 3.81842 59.7232 3.91966 59.727 4.16227C59.7328 4.466 59.727 4.77165 59.729 5.07539C59.729 5.31226 59.7519 5.33519 59.9945 5.33519C60.5828 5.3371 61.1712 5.33901 61.7577 5.33519C62.4568 5.33136 62.986 4.93594 63.1866 4.27116C63.1885 4.26351 63.1904 4.25587 63.1923 4.24823C63.2859 3.80505 63.4024 3.76875 63.8838 3.79549C64.1112 3.80887 64.2105 3.91966 64.2162 4.15081C64.2219 4.45454 64.2162 4.76019 64.2181 5.06392C64.2181 5.31799 64.2353 5.33328 64.4951 5.33519C64.7855 5.3371 65.0758 5.33519 65.3662 5.33519C65.5286 5.33519 65.691 5.36575 65.7425 5.53386C65.8018 5.7287 65.8361 5.94648 65.6833 6.1184C65.6279 6.18144 65.5095 6.2101 65.4178 6.21392C65.1121 6.22538 64.8065 6.21774 64.5008 6.21965C64.2506 6.21965 64.2239 6.24639 64.2239 6.49855C64.2239 7.35818 64.2239 8.21972 64.2239 9.07935C64.2239 9.33533 64.2812 9.57411 64.5276 9.7021C64.7759 9.83009 65.0224 9.75941 65.244 9.62187C65.3452 9.55883 65.4273 9.46332 65.5057 9.37162C65.6031 9.25701 65.7005 9.15003 65.8705 9.20352C66.0577 9.26274 66.0596 9.41747 66.0558 9.57602C66.031 10.3573 65.393 11.11 64.5925 11.3048C64.2143 11.3965 63.8361 11.4023 63.4578 11.3163C62.7415 11.152 62.2926 10.6955 62.1053 10.002C62.0213 9.69064 61.9831 9.35825 61.9774 9.0335C61.9602 8.1968 61.9716 7.35818 61.9716 6.52147C61.9716 6.43169 61.9621 6.34382 61.9563 6.24257C61.8799 6.23302 61.8207 6.22156 61.7615 6.21965C61.1808 6.21965 60.6 6.21774 60.0212 6.21965C59.7786 6.21965 59.7366 6.25785 59.7366 6.49473C59.7347 7.33908 59.729 8.18533 59.7404 9.02968C59.7442 9.31431 59.7863 9.60086 60.1148 9.72121C60.3823 9.81863 60.7643 9.69064 60.9745 9.43275C61.0088 9.39073 61.0356 9.34488 61.0719 9.30667C61.1578 9.20925 61.2629 9.15003 61.3966 9.19588C61.5323 9.24363 61.5628 9.35443 61.5666 9.48815C61.5838 10.1548 61.1044 10.917 60.4453 11.1902C59.7213 11.4901 58.9935 11.4806 58.3211 11.0412C57.7976 10.6993 57.5627 10.1625 57.5245 9.56456C57.4767 8.82146 57.4882 8.07454 57.4767 7.32761C57.471 6.97039 57.4767 6.61508 57.4767 6.21583L57.471 6.21965Z" fill="black"/>
<path d="M31.8483 6.21965C31.5637 6.21965 31.3211 6.21965 31.0785 6.21965C30.6888 6.21965 30.2991 6.21965 29.9113 6.21965C29.6343 6.21965 29.6209 6.23302 29.6209 6.49855C29.6209 7.36582 29.619 8.235 29.6209 9.10227C29.6209 9.63715 29.9724 9.88358 30.4729 9.68873C30.6143 9.63333 30.7308 9.50725 30.8531 9.40983C30.8932 9.37735 30.9142 9.32195 30.9524 9.28566C31.046 9.19206 31.1549 9.15194 31.2848 9.20734C31.4109 9.26083 31.4357 9.37162 31.4338 9.49197C31.4204 10.3459 30.7824 11.1463 29.9399 11.3144C29.6381 11.3755 29.3153 11.387 29.0096 11.3526C28.0965 11.2494 27.5654 10.6057 27.4126 9.77278C27.3782 9.58748 27.3649 9.39455 27.363 9.20543C27.3572 8.31523 27.361 7.42313 27.361 6.53294C27.361 6.44315 27.361 6.35337 27.361 6.22156C27.212 6.22156 27.086 6.22347 26.9599 6.22156C26.702 6.21583 26.6027 6.11076 26.5912 5.83377C26.5778 5.51475 26.681 5.36575 26.9351 5.34283C27.0038 5.3371 27.0726 5.34092 27.1414 5.33901C27.81 5.33136 28.3124 4.98178 28.5416 4.36094C28.555 4.32464 28.5703 4.29026 28.576 4.25205C28.6505 3.87 28.7231 3.75729 29.2675 3.80122C29.4929 3.82033 29.577 3.91393 29.5789 4.14126C29.5827 4.44499 29.5789 4.75064 29.5808 5.05437C29.5827 5.30462 29.6133 5.3371 29.854 5.3371C30.4576 5.33901 31.0594 5.34283 31.663 5.3371C32.3011 5.33136 32.8245 4.94549 33.0289 4.34184C33.0384 4.31318 33.0442 4.28262 33.0537 4.25396C33.1855 3.8146 33.2868 3.74583 33.7433 3.7974C33.9802 3.82415 34.0642 3.91202 34.0681 4.15081C34.0719 4.43926 34.0681 4.72962 34.0681 5.01808C34.0681 5.3199 34.0872 5.33519 34.3985 5.3371C34.6813 5.3371 34.964 5.33327 35.2467 5.3371C35.5428 5.34283 35.6555 5.47273 35.6536 5.79365C35.6536 6.09166 35.5352 6.21583 35.2448 6.21965C34.9468 6.22347 34.6488 6.21965 34.3508 6.21965C34.1273 6.22156 34.0986 6.24639 34.0986 6.47181C34.0967 7.35436 34.1044 8.23882 34.0948 9.12137C34.0891 9.58939 34.4234 9.92561 34.9793 9.68109C35.1302 9.61423 35.2563 9.47478 35.3747 9.35061C35.4817 9.23981 35.581 9.13666 35.7472 9.20734C35.9058 9.2742 35.9325 9.41365 35.9172 9.57029C35.8274 10.5885 35.0347 11.3373 34.0069 11.3736C33.3689 11.3965 32.7901 11.2533 32.3545 10.7508C31.9992 10.3401 31.8598 9.84155 31.8521 9.31431C31.8369 8.38591 31.8464 7.45751 31.8445 6.5272C31.8445 6.43742 31.8445 6.34764 31.8445 6.21965H31.8483Z" fill="black"/>
<path d="M19.3971 11.2743C18.4878 11.2743 17.5804 11.2762 16.6711 11.2743C16.5087 11.2743 16.3177 11.3087 16.2241 11.1234C16.1305 10.9381 16.2393 10.7852 16.3387 10.6401C16.4017 10.5445 16.4915 10.4624 16.5354 10.3612C16.6004 10.2102 16.6787 10.0479 16.6787 9.89122C16.6883 7.89688 16.6844 5.90254 16.6864 3.9082C16.6864 3.67323 16.5736 3.48794 16.4457 3.30455C16.3635 3.18611 16.2756 3.06767 16.2202 2.93777C16.1305 2.71809 16.2393 2.54808 16.4762 2.54808C17.3989 2.54234 18.3235 2.54234 19.2461 2.54808C19.4792 2.54808 19.59 2.72764 19.4964 2.94351C19.4467 3.06003 19.3665 3.16892 19.2805 3.26061C19.0647 3.48985 18.973 3.74774 18.9749 4.06675C18.9844 5.86242 18.9787 7.66 18.9787 9.45567C18.9787 9.50152 18.9787 9.54737 18.9787 9.59322C18.994 10.1701 19.185 10.3573 19.7562 10.3573C20.0389 10.3573 20.3216 10.3382 20.6024 10.3612C21.1068 10.4013 21.4487 10.1587 21.7085 9.76705C21.8422 9.56456 21.9454 9.34106 22.0715 9.13284C22.1421 9.01631 22.2243 8.90551 22.3083 8.79854C22.4612 8.60369 22.677 8.59796 22.8929 8.63807C23.0419 8.66482 23.0915 8.77943 23.0591 8.98574C22.9979 9.36016 22.9311 9.73458 22.868 10.109C22.8279 10.342 22.7897 10.5732 22.7477 10.8062C22.6847 11.1597 22.5528 11.2743 22.188 11.2762C21.2577 11.28 20.3254 11.2762 19.3951 11.2762L19.3971 11.2743Z" fill="black"/>
<path d="M38.9106 6.18526C38.9106 7.39638 38.9145 8.6056 38.9068 9.81481C38.9068 10.0746 38.9775 10.2905 39.1456 10.4834C39.2335 10.5866 39.3233 10.6955 39.3844 10.8158C39.5143 11.0641 39.4016 11.2571 39.1208 11.2762C38.9546 11.2876 38.7846 11.28 38.6165 11.28C37.967 11.28 37.3194 11.28 36.6699 11.28C36.6011 11.28 36.5323 11.2838 36.4636 11.2762C36.1942 11.2494 36.0891 11.0775 36.2019 10.8273C36.2515 10.7165 36.3184 10.6114 36.3948 10.5178C36.5648 10.3058 36.6336 10.0708 36.6336 9.79953C36.6279 8.01914 36.6259 6.23684 36.6336 4.45645C36.6336 4.15845 36.5534 3.9082 36.3757 3.67515C36.0471 3.24151 36.0815 3.10779 36.5725 2.86518C37.1054 2.60156 37.6384 2.33794 38.1733 2.07623C38.1866 2.06859 38.2 2.06286 38.2134 2.05522C38.668 1.84318 38.9068 1.98454 38.9087 2.48313C38.9126 3.55671 38.9087 4.63029 38.9087 5.70196C38.9087 5.86242 38.9087 6.02098 38.9087 6.18144L38.9106 6.18526Z" fill="black"/>
<path d="M41.9919 9.06215C42.2651 9.50343 42.6453 9.75177 43.1362 9.79953C43.6768 9.85301 44.1658 9.72502 44.546 9.30094C44.6377 9.19778 44.7561 9.1443 44.8956 9.21307C45.0427 9.28375 45.0694 9.40983 45.0465 9.55883C45.0006 9.86065 44.8669 10.1205 44.6835 10.3611C44.227 10.9572 43.6271 11.301 42.8802 11.366C41.9977 11.4405 41.1782 11.2628 40.4924 10.6611C40.0301 10.258 39.7263 9.75559 39.5907 9.15958C39.4054 8.34962 39.4169 7.54539 39.8333 6.80802C40.3949 5.81276 41.2546 5.25686 42.4179 5.24158C42.7656 5.23585 43.1209 5.26641 43.459 5.34283C44.0111 5.46699 44.4352 5.79556 44.7236 6.28651C44.8593 6.51574 44.9089 6.76981 44.8803 7.03343C44.8459 7.36009 44.6453 7.56449 44.3702 7.71731C43.6443 8.12229 42.9203 8.52918 42.1963 8.93608C42.1314 8.97237 42.0703 9.0144 41.9958 9.06215H41.9919ZM41.6787 8.37063C42.011 8.17196 42.2899 8.00386 42.5708 7.83575C42.6548 7.78417 42.7408 7.73259 42.8191 7.67338C42.9643 7.56449 43.0617 7.42504 43.0789 7.23783C43.1152 6.8615 43.033 6.51192 42.8401 6.18908C42.5937 5.78028 42.0435 5.76118 41.7761 6.15852C41.6844 6.29415 41.6194 6.45461 41.5717 6.61126C41.4456 7.02961 41.5086 7.45369 41.564 7.87396C41.585 8.02678 41.6347 8.17769 41.6787 8.36872V8.37063Z" fill="black"/>
<path d="M68.7474 9.06216C69.0187 9.50725 69.4007 9.75177 69.8898 9.79953C70.4227 9.85301 70.906 9.72885 71.2824 9.31622C71.3836 9.20543 71.5002 9.14812 71.6492 9.21689C71.8039 9.28948 71.8268 9.43084 71.7848 9.56647C71.7122 9.79571 71.6492 10.0402 71.5154 10.2351C71.0837 10.8674 70.4896 11.2743 69.7102 11.3564C68.6958 11.4615 67.7808 11.2399 67.0511 10.4815C66.5735 9.98482 66.3309 9.38117 66.2583 8.70111C66.1934 8.10701 66.2297 7.52246 66.4971 6.98376C67.0492 5.87198 67.9451 5.27024 69.2059 5.23776C69.63 5.22821 70.0426 5.2645 70.4438 5.41542C70.8277 5.5606 71.1429 5.79556 71.3702 6.13177C71.483 6.29797 71.5632 6.49664 71.6129 6.69149C71.7179 7.11366 71.5594 7.46325 71.1811 7.6772C70.4781 8.07836 69.7713 8.46997 69.0684 8.86731C68.9633 8.92652 68.864 8.99147 68.7474 9.06216ZM68.4303 8.38018C68.8563 8.11656 69.2479 7.89688 69.609 7.63517C69.7274 7.54921 69.8057 7.36009 69.8286 7.20727C69.8821 6.85195 69.7847 6.51192 69.6013 6.20437C69.3473 5.77837 68.7895 5.75163 68.5277 6.17189C68.3998 6.3782 68.3195 6.62845 68.2794 6.86915C68.1973 7.362 68.287 7.8453 68.4284 8.38018H68.4303Z" fill="black"/>
<path d="M74.6292 6.22156C74.7686 6.03817 74.8871 5.84905 75.038 5.69432C75.4793 5.24158 76.039 5.15753 76.6254 5.27214C77.0839 5.36193 77.4029 5.75163 77.4411 6.25785C77.4602 6.51765 77.4297 6.79273 77.3609 7.04489C77.2444 7.46898 76.9063 7.65427 76.3943 7.63135C75.9874 7.61225 75.7486 7.40021 75.6455 6.96466C75.6283 6.89016 75.6073 6.81757 75.5786 6.74689C75.5213 6.60552 75.4411 6.49091 75.2653 6.49091C75.0991 6.49091 75.0113 6.59979 74.9692 6.73351C74.9157 6.90735 74.8584 7.08692 74.8546 7.26457C74.8412 8.13949 74.8451 9.01631 74.8431 9.89122C74.8431 10.1224 74.9654 10.2924 75.1144 10.4528C75.2176 10.5636 75.3341 10.6687 75.4181 10.7929C75.5748 11.0278 75.4755 11.2322 75.1946 11.2609C75.0361 11.2762 74.8737 11.2704 74.7132 11.2704C74.0332 11.2704 73.3531 11.2724 72.675 11.2704C72.5183 11.2704 72.3349 11.2972 72.2509 11.1176C72.1687 10.9457 72.2547 10.7929 72.354 10.6515C72.3884 10.6018 72.4247 10.5522 72.4648 10.5063C72.6406 10.2924 72.7265 10.0498 72.7246 9.76896C72.7208 9.0526 72.7151 8.33625 72.7265 7.6218C72.7304 7.3429 72.6444 7.11557 72.44 6.93027C72.3999 6.89398 72.3617 6.85768 72.3216 6.82139C72.0331 6.55204 72.0579 6.2674 72.4113 6.09357C72.9787 5.81276 73.5518 5.54532 74.1306 5.28743C74.4668 5.13842 74.6177 5.25113 74.6196 5.61982C74.6196 5.81085 74.6196 5.99996 74.6216 6.19099C74.6216 6.19863 74.6254 6.20628 74.6292 6.21965V6.22156Z" fill="black"/>
<path d="M26.0525 7.72686C26.0525 8.38973 26.0563 9.05069 26.0525 9.71356C26.0506 10.0173 26.1365 10.279 26.339 10.5082C26.425 10.6038 26.5071 10.7088 26.5625 10.8234C26.6791 11.0603 26.5816 11.2303 26.3238 11.2666C26.2569 11.2762 26.1862 11.2762 26.1174 11.2762C25.3476 11.2762 24.5758 11.2781 23.806 11.2762C23.6417 11.2762 23.4488 11.3106 23.359 11.1234C23.2711 10.9419 23.359 10.7719 23.4774 10.6401C23.7754 10.3115 23.848 9.92942 23.8346 9.49961C23.8136 8.89978 23.8251 8.29804 23.8308 7.6963C23.8327 7.43268 23.7601 7.20345 23.5959 6.99905C23.5195 6.90353 23.4469 6.80611 23.3857 6.70104C23.2864 6.53102 23.3189 6.39921 23.4736 6.2846C23.5042 6.26167 23.5366 6.24066 23.571 6.22538C24.1919 5.91782 24.8146 5.61027 25.4374 5.30462C25.4985 5.27406 25.5654 5.25495 25.6322 5.24158C25.8939 5.19382 26.0449 5.31608 26.0506 5.58352C26.0563 5.86433 26.0506 6.14706 26.0506 6.42787C26.0506 6.8615 26.0506 7.29514 26.0506 7.72877L26.0525 7.72686Z" fill="black"/>
<path d="M26.3753 3.4077C26.3849 3.89865 26.1748 4.2425 25.7812 4.46791C25.2674 4.7621 24.7287 4.76401 24.2053 4.50803C23.7774 4.2979 23.5328 3.93685 23.5309 3.44973C23.529 2.95879 23.7525 2.58246 24.1938 2.36087C24.7363 2.08961 25.2884 2.09725 25.8099 2.41053C26.1862 2.63595 26.3983 2.97789 26.3753 3.40579V3.4077Z" fill="black"/>
<path opacity="0.04" d="M7.18841 3.7783C6.99357 3.7783 6.84647 3.9273 6.84456 4.12788C6.84265 4.33419 6.97828 4.48129 7.17695 4.48702C7.38899 4.49275 7.53227 4.34757 7.53036 4.12979C7.53036 3.93112 7.38135 3.78021 7.18841 3.7783Z" fill="black"/>
<path opacity="0.04" d="M7.64115 6.82903C7.75958 6.83285 7.87611 6.72014 7.87802 6.60171C7.87993 6.48327 7.76723 6.36483 7.6507 6.36292C7.53608 6.36101 7.41573 6.47563 7.41191 6.59215C7.40809 6.70868 7.52271 6.82521 7.64115 6.82903Z" fill="black"/>
<path opacity="0.4" d="M6.74904 13.75C7.59721 13.75 8.41863 13.6144 9.16555 13.3278C9.12162 13.2438 9.0452 13.1062 9.01846 13.0375C8.70708 12.2944 8.68798 11.5322 8.86182 10.7528C8.98981 10.1816 9.12353 9.61041 9.21904 9.0335C9.28208 8.65335 9.29545 8.26174 9.30309 7.87587C9.31073 7.46133 9.08723 7.22064 8.66697 7.18625C8.36514 7.16142 8.0595 7.17861 7.75576 7.17479C7.6335 7.17479 7.50933 7.1767 7.3909 7.1576C7.0948 7.10793 7.00693 7.01815 6.94962 6.72396C6.90186 6.47181 6.76814 6.27505 6.58284 6.10694C6.42429 5.96367 6.40328 5.97131 6.2409 6.10694C6.11291 6.21392 5.97919 6.31898 5.8321 6.39539C5.664 6.48327 5.55129 6.42214 5.51308 6.23684C5.48825 6.11649 5.46915 5.98659 5.52646 5.88153C5.50926 5.89681 5.49398 5.914 5.4787 5.9331C5.09664 6.43169 5.13485 7.09647 5.55702 7.57404C5.60096 7.62371 5.66018 7.68484 5.664 7.74406C5.69456 8.19106 5.96964 8.49671 6.24472 8.80809C6.49115 9.08699 6.59622 9.4041 6.53509 9.78042C6.43193 10.428 6.32496 11.0756 6.25045 11.727C6.17977 12.3459 6.22371 12.9611 6.43957 13.5571C6.47778 13.6621 6.53127 13.7213 6.61532 13.7462" fill="black"/>
<path d="M11.689 11.3201C11.4101 11.194 11.1886 11.0011 11.0224 10.7451C10.8065 10.4146 10.6938 10.0421 10.6193 9.66007C10.4722 8.89978 10.3308 8.13567 10.199 7.37346C10.1857 7.29132 10.2296 7.18243 10.2793 7.10984C10.3996 6.93601 10.4206 6.76026 10.3327 6.57114C10.2449 6.38584 10.0825 6.29797 9.88956 6.30179C9.71954 6.30561 9.60683 6.24066 9.49413 6.12222C8.91913 5.51284 7.6144 5.17663 6.73567 5.66375C6.52172 5.78219 6.32114 5.82422 6.08235 5.72106C5.91425 5.64847 5.72704 5.68095 5.58759 5.80703C5.4596 5.92355 5.48443 6.08784 5.515 6.23684C5.5532 6.42214 5.66591 6.48327 5.83402 6.39539C5.98111 6.31898 6.11483 6.21201 6.24282 6.10694C6.40519 5.97131 6.42621 5.96367 6.58476 6.10694C6.77006 6.27505 6.90187 6.47372 6.95153 6.72396C7.00884 7.02006 7.09863 7.10984 7.39281 7.1576C7.51125 7.1767 7.63542 7.17288 7.75768 7.17479C8.06141 7.17861 8.36706 7.16142 8.66888 7.18625C9.08724 7.22064 9.31265 7.46133 9.30501 7.87587C9.29737 8.26174 9.284 8.65335 9.22096 9.0335C9.12544 9.61041 8.99172 10.1816 8.86373 10.7528C8.6899 11.5302 8.709 12.2925 9.02038 13.0375C9.05094 13.1101 9.12544 13.2438 9.16747 13.3278C10.2353 12.9362 11.1255 12.3135 11.8591 11.4194C11.7788 11.3717 11.7368 11.343 11.689 11.322V11.3201ZM7.64115 6.82903C7.52271 6.82521 7.40809 6.70868 7.41191 6.59215C7.41573 6.47754 7.53608 6.36101 7.6507 6.36292C7.76723 6.36483 7.87993 6.48327 7.87802 6.6017C7.87611 6.72014 7.75959 6.83285 7.64115 6.82903Z" fill="black"/>
<path d="M10.2468 3.06003C10.1169 2.869 9.89719 2.82507 9.6756 2.84035C9.58582 2.84608 9.49221 2.869 9.41389 2.90912C9.16555 3.04093 8.9325 3.01037 8.69562 2.87856C7.9105 2.4411 7.07761 2.37042 6.21225 2.56336C5.48634 2.72382 4.84257 3.03138 4.34972 3.60446C4.23701 3.73627 4.09756 3.76302 3.93901 3.75156C3.61617 3.72863 3.36974 3.85662 3.23029 4.15081C3.09275 4.43735 3.15961 4.70479 3.36592 4.93211C3.48245 5.0601 3.49009 5.19 3.45762 5.35238C3.3067 6.10503 3.1768 6.8615 3.02207 7.61225C2.89026 8.25219 2.77182 8.89787 2.58462 9.52254C2.40314 10.1319 2.05738 10.6534 1.48238 10.9839C1.44417 11.0068 1.3926 11.0317 1.34102 11.0622C1.41934 11.173 1.4862 11.2571 1.54733 11.3316C2.43179 12.4109 3.54167 13.1578 4.88269 13.559C5.12339 13.6316 5.14058 13.622 5.23036 13.3775C5.53792 12.5293 5.62006 11.6563 5.45387 10.7719C5.30486 9.981 5.11766 9.19588 4.95528 8.40693C4.79291 7.61607 4.68402 6.81757 4.70121 6.00761C4.71268 5.45362 4.97056 5.11168 5.515 5.00662C5.81682 4.94931 6.13393 4.95695 6.44531 4.94549C6.85602 4.9302 7.27055 4.95313 7.67744 4.90919C8.01747 4.87099 8.14164 4.67996 8.18749 4.33419C8.25244 3.84707 8.75293 3.34467 8.93823 3.2396C9.12353 3.13453 9.20758 3.31219 9.24388 3.33893C9.46356 3.50131 9.65459 3.70571 9.89146 3.83943C10.0615 3.93686 10.2048 3.88337 10.2601 3.74201C10.348 3.51659 10.3958 3.27399 10.2506 3.06194L10.2468 3.06003ZM7.17504 4.48702C6.97637 4.48129 6.84074 4.33419 6.84265 4.12788C6.84456 3.9273 6.99356 3.77639 7.1865 3.7783C7.37944 3.7783 7.52653 3.92921 7.52844 4.12979C7.52844 4.34757 7.38708 4.49275 7.17504 4.48702Z" fill="black"/>
<path opacity="0.4" d="M1.48047 10.982C2.05738 10.6515 2.40123 10.1281 2.58271 9.52062C2.76992 8.89596 2.88835 8.25028 3.02016 7.61034C3.1749 6.85768 3.3048 6.10121 3.45571 5.35047C3.48818 5.18809 3.48054 5.0601 3.36402 4.9302C3.15771 4.70288 3.09084 4.43544 3.22839 4.1489C3.36784 3.85662 3.61426 3.72863 3.9371 3.74965C4.09757 3.76111 4.23511 3.73436 4.34781 3.60255C4.84067 3.02947 5.48634 2.72382 6.21034 2.56145C7.0757 2.36851 7.90859 2.43919 8.69372 2.87664C8.92868 3.00845 9.16174 3.03902 9.41199 2.90721C9.49031 2.86518 9.58582 2.84417 9.67369 2.83844C9.89529 2.82316 10.115 2.86709 10.2449 3.05812C10.2659 3.08869 10.2812 3.11925 10.2945 3.14982C10.3901 3.23578 10.455 3.32747 10.4913 3.42872C10.7072 4.0381 10.6422 4.6322 10.2716 5.1518C10.071 5.43261 9.85517 5.50902 9.86854 5.87962C9.86854 5.90827 9.83989 6.10694 9.82843 6.13559C9.80359 6.20054 9.77876 6.25021 9.75584 6.2846C9.79595 6.29415 9.83798 6.29988 9.88765 6.29988C10.0806 6.29606 10.2449 6.38393 10.3308 6.56923C10.4187 6.75835 10.3977 6.93218 10.2773 7.10793C10.2277 7.18243 10.1818 7.28941 10.1971 7.37155C10.3289 8.13567 10.4703 8.89787 10.6174 9.65816C10.6919 10.0402 10.8046 10.4127 11.0204 10.7432C11.1866 10.9973 11.4082 11.1902 11.6871 11.3182C11.733 11.3392 11.775 11.3679 11.8514 11.4137C12.8772 10.2293 13.4981 8.68774 13.4981 6.99904C13.5 3.27207 10.4779 0.25 6.74905 0.25C3.02016 0.25 0 3.27207 0 6.99904C0 8.51963 0.504316 9.92369 1.35248 11.0527C1.39833 11.024 1.44418 11.0011 1.48047 10.9801V10.982Z" fill="black"/>
<path opacity="0.04" d="M6.4434 13.5571C6.22754 12.9611 6.1836 12.3459 6.25428 11.727C6.32878 11.0756 6.43576 10.428 6.53891 9.78042C6.60004 9.4041 6.49498 9.08699 6.24855 8.80809C5.97538 8.49671 5.69839 8.19106 5.66782 7.74406C5.664 7.68484 5.60478 7.62371 5.56085 7.57404C5.13867 7.09647 5.09856 6.43169 5.48252 5.9331C5.49781 5.914 5.51309 5.89681 5.53028 5.88153C5.54556 5.85478 5.56276 5.82995 5.58759 5.80703C5.72704 5.68095 5.91425 5.64656 6.08235 5.72106C6.31923 5.82422 6.52172 5.78219 6.73567 5.66375C7.61631 5.17663 8.92104 5.51284 9.49413 6.12222C9.60683 6.24066 9.71954 6.30561 9.88956 6.30179C9.8418 6.30179 9.79786 6.29606 9.75775 6.28651C9.78067 6.25021 9.8055 6.20245 9.83034 6.1375C9.8418 6.10885 9.87045 5.91018 9.87045 5.88153C9.85708 5.51093 10.0729 5.43452 10.2735 5.15371C10.6422 4.63411 10.7072 4.04001 10.4932 3.43063C10.4569 3.32938 10.392 3.23769 10.2964 3.15173C10.3767 3.34084 10.3327 3.54716 10.2563 3.74009C10.2009 3.88146 10.0558 3.93494 9.88765 3.83752C9.65268 3.70189 9.45974 3.4994 9.24006 3.33702C9.20376 3.31028 9.11971 3.13071 8.93441 3.23769C8.74911 3.34466 8.24862 3.84516 8.18367 4.33228C8.13782 4.67614 8.01365 4.86907 7.67362 4.90728C7.26673 4.95122 6.8522 4.92829 6.44149 4.94358C6.13011 4.95504 5.81491 4.94549 5.51118 5.0047C4.96675 5.10977 4.70886 5.45171 4.6974 6.00569C4.6802 6.81566 4.78718 7.61416 4.95146 8.40502C5.11384 9.19396 5.30105 9.97909 5.45005 10.77C5.61624 11.6544 5.53601 12.5274 5.22655 13.3756C5.19407 13.4654 5.17115 13.5208 5.1444 13.5552C5.65827 13.6812 6.19697 13.7481 6.74904 13.7481L6.61914 13.7443C6.53509 13.7194 6.4816 13.6602 6.4434 13.5552V13.5571Z" fill="black"/>
</g>
<defs>
<clipPath id="clip0_52_67">
<rect width="77.4488" height="13.5" fill="white" transform="translate(0 0.25)"/>
</clipPath>
</defs>
</svg>
